<?xml version="1.0" standalone="no"?>
<!DOCTYPE svg PUBLIC "-//W3C//DTD SVG 20010904//EN"
 "http://www.w3.org/TR/2001/REC-SVG-20010904/DTD/svg10.dtd">
<svg version="1.0" xmlns="http://www.w3.org/2000/svg"
 width="200.000000pt" height="200.000000pt" viewBox="0 0 200.000000 200.000000"
 preserveAspectRatio="xMidYMid meet">

<g transform="translate(0.000000,200.000000) scale(0.100000,-0.100000)"
fill="#000000" stroke="none">
<path d="M384 1336 c-7 -19 3 -36 22 -36 11 0 14 -14 14 -60 0 -57 1 -60 25
-60 24 0 25 3 25 59 0 51 3 59 21 64 13 4 20 12 17 24 -4 24 -115 33 -124 9z"/>
<path d="M530 1266 c0 -85 1 -87 23 -84 16 2 23 11 25 31 4 37 36 33 40 -6 2
-19 9 -27 23 -27 16 0 19 7 19 39 0 22 -4 42 -9 45 -4 3 -7 16 -4 28 6 36 -11
50 -66 56 l-51 5 0 -87z m70 24 c0 -11 -4 -20 -10 -20 -5 0 -10 9 -10 20 0 11
5 20 10 20 6 0 10 -9 10 -20z"/>
<path d="M703 1313 c-9 -21 -17 -58 -17 -83 -1 -39 2 -45 22 -48 17 -3 22 2
22 17 0 14 6 21 20 21 13 0 20 -7 20 -20 0 -13 7 -20 20 -20 17 0 20 6 19 48
0 26 -6 63 -13 82 -10 29 -18 36 -45 38 -28 3 -33 -1 -48 -35z m57 -33 c0 -11
-7 -20 -15 -20 -17 0 -18 2 -9 24 9 23 24 20 24 -4z"/>
<path d="M847 1343 c-4 -3 -7 -42 -7 -85 0 -77 1 -79 23 -76 17 2 23 11 27 42
5 38 5 39 17 15 6 -13 14 -32 17 -41 3 -10 15 -18 26 -18 20 0 21 5 18 83 -3
74 -5 82 -23 82 -12 0 -21 -9 -25 -23 l-5 -24 -24 26 c-26 27 -33 30 -44 19z"/>
<path d="M1022 1339 c-19 -7 -23 -15 -20 -46 3 -33 7 -39 36 -49 37 -12 32
-24 -10 -24 -21 0 -28 -5 -28 -20 0 -17 7 -20 44 -20 52 0 69 16 64 61 -3 28
-8 34 -38 43 l-35 10 33 4 c26 3 32 8 32 28 0 20 -5 24 -27 23 -16 0 -38 -4
-51 -10z"/>
<path d="M1133 1334 c-4 -10 1 -22 10 -29 23 -16 23 -85 1 -85 -9 0 -14 -7
-12 -17 3 -14 14 -18 53 -18 39 0 50 4 53 18 2 10 -3 17 -12 17 -22 0 -22 69
1 85 30 22 9 45 -42 45 -33 0 -47 -5 -52 -16z"/>
<path d="M1260 1325 c0 -18 5 -25 20 -25 18 0 20 -7 20 -60 0 -53 2 -60 20
-60 18 0 20 7 20 60 0 53 2 60 20 60 15 0 20 7 20 25 0 24 -3 25 -60 25 -57 0
-60 -1 -60 -25z"/>
<path d="M1404 1337 c-3 -8 -4 -45 -2 -83 l3 -69 53 -3 c47 -3 52 -1 52 17 0
17 -6 21 -30 21 -20 0 -30 5 -30 15 0 9 9 15 25 15 16 0 25 6 25 15 0 9 -9 15
-25 15 -14 0 -25 5 -25 10 0 6 14 10 30 10 25 0 30 4 30 25 0 23 -3 25 -50 25
-33 0 -52 -5 -56 -13z"/>
<path d="M1559 1323 c-7 -15 -14 -54 -17 -85 -4 -54 -3 -58 17 -58 14 0 21 6
21 20 0 13 7 20 20 20 14 0 20 -7 20 -21 0 -15 5 -20 23 -17 19 3 22 9 21 53
0 71 -21 109 -62 113 -27 3 -34 -1 -43 -25z m55 -39 c9 -22 8 -24 -9 -24 -8 0
-15 9 -15 20 0 24 15 27 24 4z"/>
<path d="M1718 1343 c-21 -5 -33 -43 -23 -72 3 -11 18 -22 35 -26 41 -9 38
-25 -5 -25 -28 0 -35 -4 -35 -20 0 -17 7 -20 44 -20 52 0 78 21 74 59 -2 18
-13 31 -38 43 l-35 17 33 1 c27 0 32 4 32 25 0 22 -4 25 -32 24 -18 -1 -41 -3
-50 -6z"/>
<path d="M1834 1337 c-3 -8 -4 -45 -2 -83 l3 -69 53 -3 c47 -3 52 -1 52 17 0
17 -6 21 -30 21 -20 0 -30 5 -30 15 0 9 9 15 25 15 16 0 25 6 25 15 0 9 -9 15
-25 15 -14 0 -25 5 -25 10 0 6 14 10 30 10 25 0 30 4 30 25 0 23 -3 25 -50 25
-33 0 -52 -5 -56 -13z"/>
</g>
</svg>
