<svg width="49" height="56" viewBox="0 0 49 56" fill="none" xmlns="http://www.w3.org/2000/svg">
<g id="Group">
<path id="Vector" d="M46.2066 12.8775C45.6081 13.2567 45.3688 13.9855 45.6727 14.5052L46.165 15.3472C46.4889 15.8536 47.2282 15.9427 47.8164 15.546C48.3763 15.1682 48.6017 14.4815 48.3319 13.9745L47.8396 13.1325C47.536 12.6132 46.8052 12.499 46.2066 12.8775Z" fill="#3A556A"/>
<path id="Vector_2" d="M41.7423 15.65C41.1437 16.0291 40.9045 16.7579 41.2084 17.2777L41.7007 18.1196C42.0245 18.6261 42.7638 18.7152 43.3521 18.3185C43.9119 17.9407 44.1373 17.254 43.8676 16.747L43.3752 15.905C43.0714 15.3859 42.3406 15.2716 41.7423 15.65Z" fill="#3A556A"/>
<path id="Vector_3" d="M37.2764 18.4233C36.6785 18.803 36.4401 19.5309 36.7438 20.0501L37.2361 20.8921C37.5599 21.3986 38.2992 21.4876 38.8875 21.0909C39.4473 20.7131 39.6727 20.0265 39.403 19.5195L38.9106 18.6775C38.6068 18.1578 37.8752 18.044 37.2764 18.4233Z" fill="#3A556A"/>
<path id="Vector_4" d="M32.8121 21.1957C32.2142 21.5754 31.9758 22.3033 32.2794 22.8226L32.7717 23.6646C33.0956 24.171 33.8348 24.2601 34.4231 23.8634C34.9829 23.4856 35.2084 22.7989 34.9386 22.2919L34.4463 21.4499C34.1422 20.9304 33.4106 20.8166 32.8121 21.1957Z" fill="#3A556A"/>
<path id="Vector_5" d="M28.3481 23.9684C27.7499 24.3482 27.5113 25.0764 27.8151 25.5959L28.3077 26.4383C28.6114 26.9575 29.3427 27.0712 29.941 26.6923C30.5394 26.3133 30.7783 25.5851 30.4746 25.0658L29.982 24.2235C29.6791 23.7037 28.9481 23.5892 28.3494 23.9676C28.3489 23.9679 28.3486 23.9681 28.3481 23.9684Z" fill="#3A556A"/>
<path id="Vector_6" d="M23.8837 26.7408C23.2855 27.1207 23.047 27.8489 23.3508 28.3684L23.8434 29.2107C24.147 29.73 24.8783 29.8437 25.4767 29.4647C26.075 29.0857 26.3139 28.3575 26.0103 27.8383L25.5177 26.9959C25.2148 26.4762 24.4838 26.3617 23.885 26.74C23.8845 26.7404 23.884 26.7407 23.8837 26.7408Z" fill="#3A556A"/>
<path id="Vector_7" d="M19.4191 29.5134C18.8209 29.8932 18.5824 30.6214 18.8862 31.1409L19.3788 31.9832C19.6832 32.502 20.4148 32.6145 21.0125 32.2351C21.6092 31.8562 21.8476 31.1296 21.5454 30.6109L21.0528 29.7686C20.7492 29.249 20.018 29.1347 19.4191 29.5134Z" fill="#3A556A"/>
<path id="Vector_8" d="M14.9545 32.2859C14.3563 32.6657 14.1178 33.3939 14.4216 33.9134L14.9142 34.7558C15.2186 35.2746 15.9502 35.3871 16.5479 35.0076C17.1446 34.6288 17.383 33.9021 17.0808 33.3835L16.5882 32.5411C16.2846 32.0215 15.5534 31.9072 14.9545 32.2859Z" fill="#3A556A"/>
<path id="Vector_9" d="M10.4903 35.0583C9.89206 35.4381 9.65354 36.1663 9.95733 36.6858L10.4499 37.5281C10.7543 38.0469 11.486 38.1595 12.0837 37.78C12.6804 37.4011 12.9188 36.6745 12.6165 36.1559L12.1239 35.3136C11.8201 34.7941 11.0889 34.6798 10.4903 35.0583Z" fill="#3A556A"/>
<path id="Vector_10" d="M6.02447 37.8315C5.42611 38.2105 5.18721 38.9387 5.49087 39.458L5.49151 39.4591L5.9841 40.3014C6.28853 40.8202 7.02013 40.9328 7.61786 40.5533C8.21457 40.1744 8.45297 39.4478 8.15071 38.9291L7.65812 38.0868C7.35457 37.5671 6.62334 37.4528 6.02447 37.8315Z" fill="#3A556A"/>
<path id="Vector_11" d="M1.56123 40.6032C0.962854 40.9822 0.723955 41.7104 1.02763 42.2296L1.02827 42.2307L1.52086 43.073C1.82529 43.5918 2.55691 43.7044 3.15464 43.3249C3.75137 42.9461 3.98977 42.2194 3.6875 41.7008L3.1949 40.8585C2.8911 40.339 2.15986 40.2247 1.56123 40.6032Z" fill="#3A556A"/>
</g>
</svg>
